<svg width="498" height="457" viewBox="0 0 498 457" fill="none" xmlns="http://www.w3.org/2000/svg">
<circle cx="2.38581" cy="308.435" r="2.38581" fill="#DE4848"/>
<circle cx="2.38584" cy="373.329" r="2.38581" fill="#DE4848"/>
<circle cx="2.38584" cy="340.883" r="2.38581" fill="#DE4848"/>
<circle cx="2.38584" cy="405.776" r="2.38581" fill="#DE4848"/>
<circle cx="2.38584" cy="438.223" r="2.38581" fill="#DE4848"/>
<circle cx="2.38584" cy="324.659" r="2.38581" fill="#DE4848"/>
<circle cx="2.38584" cy="389.553" r="2.38581" fill="#DE4848"/>
<circle cx="2.38584" cy="357.106" r="2.38581" fill="#DE4848"/>
<circle cx="2.38584" cy="422" r="2.38581" fill="#DE4848"/>
<circle cx="2.38584" cy="454.447" r="2.38581" fill="#DE4848"/>
<circle cx="67.2798" cy="308.436" r="2.38581" fill="#DE4848"/>
<circle cx="67.2798" cy="373.329" r="2.38581" fill="#DE4848"/>
<circle cx="67.2798" cy="340.883" r="2.38581" fill="#DE4848"/>
<circle cx="67.2798" cy="405.776" r="2.38581" fill="#DE4848"/>
<circle cx="67.2798" cy="438.223" r="2.38581" fill="#DE4848"/>
<circle cx="67.2798" cy="324.659" r="2.38581" fill="#DE4848"/>
<circle cx="67.2798" cy="389.553" r="2.38581" fill="#DE4848"/>
<circle cx="67.2798" cy="357.106" r="2.38581" fill="#DE4848"/>
<circle cx="67.2798" cy="422" r="2.38581" fill="#DE4848"/>
<circle cx="67.2798" cy="454.447" r="2.38581" fill="#DE4848"/>
<circle cx="18.6093" cy="308.436" r="2.38581" fill="#DE4848"/>
<circle cx="18.6093" cy="373.329" r="2.38581" fill="#DE4848"/>
<circle cx="18.6093" cy="340.883" r="2.38581" fill="#DE4848"/>
<circle cx="18.6093" cy="405.776" r="2.38581" fill="#DE4848"/>
<circle cx="18.6093" cy="438.223" r="2.38581" fill="#DE4848"/>
<circle cx="18.6093" cy="324.659" r="2.38581" fill="#DE4848"/>
<circle cx="18.6093" cy="389.553" r="2.38581" fill="#DE4848"/>
<circle cx="18.6093" cy="357.106" r="2.38581" fill="#DE4848"/>
<circle cx="18.6093" cy="422" r="2.38581" fill="#DE4848"/>
<circle cx="18.6093" cy="454.447" r="2.38581" fill="#DE4848"/>
<circle cx="83.5033" cy="308.436" r="2.38581" fill="#DE4848"/>
<circle cx="83.5033" cy="373.329" r="2.38581" fill="#DE4848"/>
<circle cx="83.5033" cy="340.883" r="2.38581" fill="#DE4848"/>
<circle cx="83.5033" cy="405.776" r="2.38581" fill="#DE4848"/>
<circle cx="83.5033" cy="438.223" r="2.38581" fill="#DE4848"/>
<circle cx="83.5033" cy="324.659" r="2.38581" fill="#DE4848"/>
<circle cx="83.5033" cy="389.553" r="2.38581" fill="#DE4848"/>
<circle cx="83.5033" cy="357.106" r="2.38581" fill="#DE4848"/>
<circle cx="83.5033" cy="422" r="2.38581" fill="#DE4848"/>
<circle cx="83.5033" cy="454.447" r="2.38581" fill="#DE4848"/>
<circle cx="34.8328" cy="308.436" r="2.38581" fill="#DE4848"/>
<circle cx="34.8328" cy="373.329" r="2.38581" fill="#DE4848"/>
<circle cx="34.8328" cy="340.883" r="2.38581" fill="#DE4848"/>
<circle cx="34.8328" cy="405.776" r="2.38581" fill="#DE4848"/>
<circle cx="34.8328" cy="438.223" r="2.38581" fill="#DE4848"/>
<circle cx="34.8328" cy="324.659" r="2.38581" fill="#DE4848"/>
<circle cx="34.8328" cy="389.553" r="2.38581" fill="#DE4848"/>
<circle cx="34.8328" cy="357.106" r="2.38581" fill="#DE4848"/>
<circle cx="34.8328" cy="422" r="2.38581" fill="#DE4848"/>
<circle cx="34.8328" cy="454.447" r="2.38581" fill="#DE4848"/>
<circle cx="99.7268" cy="308.436" r="2.38581" fill="#DE4848"/>
<circle cx="99.7268" cy="373.329" r="2.38581" fill="#DE4848"/>
<circle cx="99.7268" cy="340.883" r="2.38581" fill="#DE4848"/>
<circle cx="99.7268" cy="405.776" r="2.38581" fill="#DE4848"/>
<circle cx="99.7268" cy="438.223" r="2.38581" fill="#DE4848"/>
<circle cx="99.7268" cy="324.659" r="2.38581" fill="#DE4848"/>
<circle cx="99.7268" cy="389.553" r="2.38581" fill="#DE4848"/>
<circle cx="99.7268" cy="357.106" r="2.38581" fill="#DE4848"/>
<circle cx="99.7268" cy="422" r="2.38581" fill="#DE4848"/>
<circle cx="99.7268" cy="454.447" r="2.38581" fill="#DE4848"/>
<circle cx="132.174" cy="308.436" r="2.38581" fill="#DE4848"/>
<circle cx="132.174" cy="373.329" r="2.38581" fill="#DE4848"/>
<circle cx="132.174" cy="340.883" r="2.38581" fill="#DE4848"/>
<circle cx="132.174" cy="405.776" r="2.38581" fill="#DE4848"/>
<circle cx="132.174" cy="438.223" r="2.38581" fill="#DE4848"/>
<circle cx="132.174" cy="324.659" r="2.38581" fill="#DE4848"/>
<circle cx="132.174" cy="389.553" r="2.38581" fill="#DE4848"/>
<circle cx="132.174" cy="357.106" r="2.38581" fill="#DE4848"/>
<circle cx="132.174" cy="422" r="2.38581" fill="#DE4848"/>
<circle cx="132.174" cy="454.447" r="2.38581" fill="#DE4848"/>
<circle cx="51.0563" cy="308.436" r="2.38581" fill="#DE4848"/>
<circle cx="51.0563" cy="373.329" r="2.38581" fill="#DE4848"/>
<circle cx="51.0563" cy="340.883" r="2.38581" fill="#DE4848"/>
<circle cx="51.0563" cy="405.776" r="2.38581" fill="#DE4848"/>
<circle cx="51.0563" cy="438.223" r="2.38581" fill="#DE4848"/>
<circle cx="51.0563" cy="324.659" r="2.38581" fill="#DE4848"/>
<circle cx="51.0563" cy="389.553" r="2.38581" fill="#DE4848"/>
<circle cx="51.0563" cy="357.106" r="2.38581" fill="#DE4848"/>
<circle cx="51.0563" cy="422" r="2.38581" fill="#DE4848"/>
<circle cx="51.0563" cy="454.447" r="2.38581" fill="#DE4848"/>
<circle cx="115.95" cy="308.436" r="2.38581" fill="#DE4848"/>
<circle cx="115.95" cy="373.329" r="2.38581" fill="#DE4848"/>
<circle cx="115.95" cy="340.883" r="2.38581" fill="#DE4848"/>
<circle cx="115.95" cy="405.776" r="2.38581" fill="#DE4848"/>
<circle cx="115.95" cy="438.223" r="2.38581" fill="#DE4848"/>
<circle cx="115.95" cy="324.659" r="2.38581" fill="#DE4848"/>
<circle cx="115.95" cy="389.553" r="2.38581" fill="#DE4848"/>
<circle cx="115.95" cy="357.106" r="2.38581" fill="#DE4848"/>
<circle cx="115.95" cy="422" r="2.38581" fill="#DE4848"/>
<circle cx="115.95" cy="454.447" r="2.38581" fill="#DE4848"/>
<circle cx="148.397" cy="308.436" r="2.38581" fill="#DE4848"/>
<circle cx="148.397" cy="373.329" r="2.38581" fill="#DE4848"/>
<circle cx="148.397" cy="340.883" r="2.38581" fill="#DE4848"/>
<circle cx="148.397" cy="405.776" r="2.38581" fill="#DE4848"/>
<circle cx="148.397" cy="438.223" r="2.38581" fill="#DE4848"/>
<circle cx="148.397" cy="324.659" r="2.38581" fill="#DE4848"/>
<circle cx="148.397" cy="389.553" r="2.38581" fill="#DE4848"/>
<circle cx="148.397" cy="357.106" r="2.38581" fill="#DE4848"/>
<circle cx="148.397" cy="422" r="2.38581" fill="#DE4848"/>
<circle cx="148.397" cy="454.447" r="2.38581" fill="#DE4848"/>
<circle cx="348.888" cy="2.59687" r="2.38581" fill="#DE4848"/>
<circle cx="348.888" cy="67.4907" r="2.38581" fill="#DE4848"/>
<circle cx="348.888" cy="35.0436" r="2.38581" fill="#DE4848"/>
<circle cx="348.888" cy="99.9376" r="2.38581" fill="#DE4848"/>
<circle cx="348.888" cy="132.385" r="2.38581" fill="#DE4848"/>
<circle cx="348.888" cy="18.8201" r="2.38581" fill="#DE4848"/>
<circle cx="348.888" cy="83.7142" r="2.38581" fill="#DE4848"/>
<circle cx="348.888" cy="51.2672" r="2.38581" fill="#DE4848"/>
<circle cx="348.888" cy="116.161" r="2.38581" fill="#DE4848"/>
<circle cx="348.888" cy="148.608" r="2.38581" fill="#DE4848"/>
<circle cx="413.782" cy="2.59675" r="2.38581" fill="#DE4848"/>
<circle cx="413.782" cy="67.4907" r="2.38581" fill="#DE4848"/>
<circle cx="413.782" cy="35.0436" r="2.38581" fill="#DE4848"/>
<circle cx="413.782" cy="99.9376" r="2.38581" fill="#DE4848"/>
<circle cx="413.782" cy="132.385" r="2.38581" fill="#DE4848"/>
<circle cx="413.782" cy="18.8201" r="2.38581" fill="#DE4848"/>
<circle cx="413.782" cy="83.7142" r="2.38581" fill="#DE4848"/>
<circle cx="413.782" cy="51.2672" r="2.38581" fill="#DE4848"/>
<circle cx="413.782" cy="116.161" r="2.38581" fill="#DE4848"/>
<circle cx="413.782" cy="148.608" r="2.38581" fill="#DE4848"/>
<circle cx="365.111" cy="2.59675" r="2.38581" fill="#DE4848"/>
<circle cx="365.111" cy="67.4907" r="2.38581" fill="#DE4848"/>
<circle cx="365.111" cy="35.0436" r="2.38581" fill="#DE4848"/>
<circle cx="365.111" cy="99.9376" r="2.38581" fill="#DE4848"/>
<circle cx="365.111" cy="132.385" r="2.38581" fill="#DE4848"/>
<circle cx="365.111" cy="18.8201" r="2.38581" fill="#DE4848"/>
<circle cx="365.111" cy="83.7142" r="2.38581" fill="#DE4848"/>
<circle cx="365.111" cy="51.2672" r="2.38581" fill="#DE4848"/>
<circle cx="365.111" cy="116.161" r="2.38581" fill="#DE4848"/>
<circle cx="365.111" cy="148.608" r="2.38581" fill="#DE4848"/>
<circle cx="430.005" cy="2.59675" r="2.38581" fill="#DE4848"/>
<circle cx="430.005" cy="67.4907" r="2.38581" fill="#DE4848"/>
<circle cx="430.005" cy="35.0436" r="2.38581" fill="#DE4848"/>
<circle cx="430.005" cy="99.9376" r="2.38581" fill="#DE4848"/>
<circle cx="430.005" cy="132.385" r="2.38581" fill="#DE4848"/>
<circle cx="430.005" cy="18.8201" r="2.38581" fill="#DE4848"/>
<circle cx="430.005" cy="83.7142" r="2.38581" fill="#DE4848"/>
<circle cx="430.005" cy="51.2672" r="2.38581" fill="#DE4848"/>
<circle cx="430.005" cy="116.161" r="2.38581" fill="#DE4848"/>
<circle cx="430.005" cy="148.608" r="2.38581" fill="#DE4848"/>
<circle cx="381.335" cy="2.59675" r="2.38581" fill="#DE4848"/>
<circle cx="381.335" cy="67.4907" r="2.38581" fill="#DE4848"/>
<circle cx="381.335" cy="35.0436" r="2.38581" fill="#DE4848"/>
<circle cx="381.335" cy="99.9376" r="2.38581" fill="#DE4848"/>
<circle cx="381.335" cy="132.385" r="2.38581" fill="#DE4848"/>
<circle cx="381.335" cy="18.8201" r="2.38581" fill="#DE4848"/>
<circle cx="381.335" cy="83.7142" r="2.38581" fill="#DE4848"/>
<circle cx="381.335" cy="51.2672" r="2.38581" fill="#DE4848"/>
<circle cx="381.335" cy="116.161" r="2.38581" fill="#DE4848"/>
<circle cx="381.335" cy="148.608" r="2.38581" fill="#DE4848"/>
<circle cx="446.229" cy="2.59675" r="2.38581" fill="#DE4848"/>
<circle cx="446.229" cy="67.4907" r="2.38581" fill="#DE4848"/>
<circle cx="446.229" cy="35.0436" r="2.38581" fill="#DE4848"/>
<circle cx="446.229" cy="99.9376" r="2.38581" fill="#DE4848"/>
<circle cx="446.229" cy="132.385" r="2.38581" fill="#DE4848"/>
<circle cx="446.229" cy="18.8201" r="2.38581" fill="#DE4848"/>
<circle cx="446.229" cy="83.7142" r="2.38581" fill="#DE4848"/>
<circle cx="446.229" cy="51.2672" r="2.38581" fill="#DE4848"/>
<circle cx="446.229" cy="116.161" r="2.38581" fill="#DE4848"/>
<circle cx="446.229" cy="148.608" r="2.38581" fill="#DE4848"/>
<circle cx="478.676" cy="2.59675" r="2.38581" fill="#DE4848"/>
<circle cx="478.676" cy="67.4907" r="2.38581" fill="#DE4848"/>
<circle cx="478.676" cy="35.0436" r="2.38581" fill="#DE4848"/>
<circle cx="478.676" cy="99.9376" r="2.38581" fill="#DE4848"/>
<circle cx="478.676" cy="132.385" r="2.38581" fill="#DE4848"/>
<circle cx="478.676" cy="18.8201" r="2.38581" fill="#DE4848"/>
<circle cx="478.676" cy="83.7142" r="2.38581" fill="#DE4848"/>
<circle cx="478.676" cy="51.2672" r="2.38581" fill="#DE4848"/>
<circle cx="478.676" cy="116.161" r="2.38581" fill="#DE4848"/>
<circle cx="478.676" cy="148.608" r="2.38581" fill="#DE4848"/>
<circle cx="397.558" cy="2.59675" r="2.38581" fill="#DE4848"/>
<circle cx="397.558" cy="67.4907" r="2.38581" fill="#DE4848"/>
<circle cx="397.558" cy="35.0436" r="2.38581" fill="#DE4848"/>
<circle cx="397.558" cy="99.9376" r="2.38581" fill="#DE4848"/>
<circle cx="397.558" cy="132.385" r="2.38581" fill="#DE4848"/>
<circle cx="397.558" cy="18.8201" r="2.38581" fill="#DE4848"/>
<circle cx="397.558" cy="83.7142" r="2.38581" fill="#DE4848"/>
<circle cx="397.558" cy="51.2672" r="2.38581" fill="#DE4848"/>
<circle cx="397.558" cy="116.161" r="2.38581" fill="#DE4848"/>
<circle cx="397.558" cy="148.608" r="2.38581" fill="#DE4848"/>
<circle cx="462.452" cy="2.59675" r="2.38581" fill="#DE4848"/>
<circle cx="462.452" cy="67.4907" r="2.38581" fill="#DE4848"/>
<circle cx="462.452" cy="35.0436" r="2.38581" fill="#DE4848"/>
<circle cx="462.452" cy="99.9376" r="2.38581" fill="#DE4848"/>
<circle cx="462.452" cy="132.385" r="2.38581" fill="#DE4848"/>
<circle cx="462.452" cy="18.8201" r="2.38581" fill="#DE4848"/>
<circle cx="462.452" cy="83.7142" r="2.38581" fill="#DE4848"/>
<circle cx="462.452" cy="51.2672" r="2.38581" fill="#DE4848"/>
<circle cx="462.452" cy="116.161" r="2.38581" fill="#DE4848"/>
<circle cx="462.452" cy="148.608" r="2.38581" fill="#DE4848"/>
<circle cx="494.899" cy="2.59675" r="2.38581" fill="#DE4848"/>
<circle cx="494.899" cy="67.4907" r="2.38581" fill="#DE4848"/>
<circle cx="494.899" cy="35.0436" r="2.38581" fill="#DE4848"/>
<circle cx="494.899" cy="99.9376" r="2.38581" fill="#DE4848"/>
<circle cx="494.899" cy="132.385" r="2.38581" fill="#DE4848"/>
<circle cx="494.899" cy="18.8201" r="2.38581" fill="#DE4848"/>
<circle cx="494.899" cy="83.7142" r="2.38581" fill="#DE4848"/>
<circle cx="494.899" cy="51.2672" r="2.38581" fill="#DE4848"/>
<circle cx="494.899" cy="116.161" r="2.38581" fill="#DE4848"/>
<circle cx="494.899" cy="148.608" r="2.38581" fill="#DE4848"/>
</svg>
