<?xml version="1.0" encoding="UTF-8" standalone="no"?>
<!DOCTYPE svg PUBLIC "-//W3C//DTD SVG 1.1//EN" "http://www.w3.org/Graphics/SVG/1.1/DTD/svg11.dtd">
<svg version="1.1" xmlns="http://www.w3.org/2000/svg" xmlns:xlink="http://www.w3.org/1999/xlink" preserveAspectRatio="xMidYMid meet" viewBox="0 0 640 640" width="75" height="75"><defs><path d="M624.82 116.36C615.14 116.36 566.74 116.36 479.62 116.36L478.1 116.36L477.6 116.36L477.22 115.98L476.08 114.85C433.88 72.65 410.44 49.21 405.75 44.52C402.97 41.87 399.56 40.47 395.89 40.47C369.33 40.47 156.84 40.47 130.28 40.47C122.56 40.47 116.36 46.67 116.36 54.39C116.36 58.18 116.36 77.15 116.36 111.3L116.36 115.1L116.36 116.36L115.1 116.36L111.3 116.36C53.63 116.36 21.59 116.36 15.18 116.36C7.46 116.36 1.26 122.56 1.26 130.28C1.26 168.22 1.26 471.78 1.26 509.72C1.26 517.44 7.46 523.64 15.18 523.64C21.59 523.64 53.63 523.64 111.3 523.64L115.1 523.64L116.36 523.64L116.36 524.9L116.36 528.7C116.36 562.85 116.36 581.82 116.36 585.61C116.36 593.33 122.56 599.53 130.28 599.53C168.22 599.53 471.78 599.53 509.72 599.53C517.44 599.53 523.64 593.33 523.64 585.61C523.64 581.82 523.64 562.85 523.64 528.7L523.64 524.9L523.64 523.64L524.9 523.64L528.7 523.64C586.37 523.64 618.41 523.64 624.82 523.64C632.54 523.64 638.74 517.44 638.74 509.72C638.74 484.43 638.74 357.94 638.74 130.28C634.6 121 629.97 116.36 624.82 116.36ZM116.36 149.25L116.36 490.75L116.36 494.55L116.36 495.81L115.1 495.81L111.3 495.81L34.15 495.81L30.36 495.81L29.09 495.81L29.09 494.55L29.09 490.75L29.09 149.25L29.09 145.45L29.09 144.19L30.36 144.19L34.15 144.19L111.3 144.19L115.1 144.19L116.36 144.19L116.36 145.45L116.36 149.25ZM409.8 149.25L409.8 100.17L409.8 91.07L409.8 88.03L411.95 90.18L418.4 96.63L467.48 145.71L473.93 152.16L476.08 154.31L473.04 154.31L463.94 154.31L414.86 154.31L411.07 154.31L409.8 154.31L409.8 153.04L409.8 149.25ZM495.81 187.19L495.81 566.64L495.81 570.43L495.81 571.7L494.55 571.7L490.75 571.7L149.25 571.7L145.45 571.7L144.19 571.7L144.19 570.43L144.19 566.64L144.19 73.36L144.19 69.57L144.19 68.3L145.45 68.3L149.25 68.3L376.92 68.3L380.71 68.3L381.98 68.3L381.98 69.57L381.98 73.36C381.98 130.28 381.98 161.9 381.98 168.22C381.98 175.94 388.17 182.13 395.89 182.13C402.21 182.13 433.83 182.13 490.75 182.13L494.55 182.13L495.81 182.13L495.81 183.4L495.81 187.19ZM610.91 149.25L610.91 490.75L610.91 494.55L610.91 495.81L609.64 495.81L605.85 495.81L528.7 495.81L524.9 495.81L523.64 495.81L523.64 494.55L523.64 490.75C523.64 297.23 523.64 189.72 523.64 168.22C523.64 164.55 522.12 160.89 519.59 158.36C519.22 157.98 517.36 156.13 514.02 152.79L507.57 146.34L505.42 144.19L508.46 144.19L517.57 144.19L605.85 144.19L609.64 144.19L610.91 144.19L610.91 145.45L610.91 149.25Z" id="a1tlnzPa8u"></path><path d="M244.11 457.87C236.4 457.87 230.2 464.06 230.2 471.78C230.2 479.49 236.4 485.69 244.11 485.69C259.29 485.69 380.71 485.69 395.89 485.69C403.6 485.69 409.8 479.49 409.8 471.78C409.8 464.06 403.6 457.87 395.89 457.87C365.53 457.87 259.29 457.87 244.11 457.87Z" id="d1EPbkgreu"></path><path d="M244.11 381.98C236.4 381.98 230.2 388.17 230.2 395.89C230.2 403.6 236.4 409.8 244.11 409.8C259.29 409.8 380.71 409.8 395.89 409.8C403.6 409.8 409.8 403.6 409.8 395.89C409.8 388.17 403.6 381.98 395.89 381.98C365.53 381.98 259.29 381.98 244.11 381.98Z" id="b3jpgAGaci"></path><path d="M244.11 306.09C236.4 306.09 230.2 312.28 230.2 320C230.2 327.72 236.4 333.91 244.11 333.91C259.29 333.91 380.71 333.91 395.89 333.91C403.6 333.91 409.8 327.72 409.8 320C409.8 312.28 403.6 306.09 395.89 306.09C365.53 306.09 259.29 306.09 244.11 306.09Z" id="beC9M0Ax6"></path><path d="M243.11 230.2C235.4 230.2 229.2 236.4 229.2 244.11C229.2 251.83 235.4 258.02 243.11 258.02C258.29 258.02 379.71 258.02 394.89 258.02C402.6 258.02 408.8 251.83 408.8 244.11C408.8 236.4 402.6 230.2 394.89 230.2C364.53 230.2 258.29 230.2 243.11 230.2Z" id="a34RFSB8pU"></path><path d="M244.11 154.31C236.4 154.31 230.2 160.51 230.2 168.22C230.2 175.94 236.4 182.13 244.11 182.13C251.7 182.13 312.41 182.13 320 182.13C327.72 182.13 333.91 175.94 333.91 168.22C333.91 160.51 327.72 154.31 320 154.31C304.82 154.31 251.7 154.31 244.11 154.31Z" id="b26jwqXCXo"></path></defs><g><g><g><use xlink:href="#a1tlnzPa8u" opacity="1" fill="#de4848" fill-opacity="1"></use><g><use xlink:href="#a1tlnzPa8u" opacity="1" fill-opacity="0" stroke="#000000" stroke-width="1" stroke-opacity="0"></use></g></g><g><use xlink:href="#d1EPbkgreu" opacity="1" fill="#de4848" fill-opacity="1"></use><g><use xlink:href="#d1EPbkgreu" opacity="1" fill-opacity="0" stroke="#000000" stroke-width="1" stroke-opacity="0"></use></g></g><g><use xlink:href="#b3jpgAGaci" opacity="1" fill="#de4848" fill-opacity="1"></use><g><use xlink:href="#b3jpgAGaci" opacity="1" fill-opacity="0" stroke="#000000" stroke-width="1" stroke-opacity="0"></use></g></g><g><use xlink:href="#beC9M0Ax6" opacity="1" fill="#de4848" fill-opacity="1"></use><g><use xlink:href="#beC9M0Ax6" opacity="1" fill-opacity="0" stroke="#000000" stroke-width="1" stroke-opacity="0"></use></g></g><g><use xlink:href="#a34RFSB8pU" opacity="1" fill="#de4848" fill-opacity="1"></use><g><use xlink:href="#a34RFSB8pU" opacity="1" fill-opacity="0" stroke="#000000" stroke-width="1" stroke-opacity="0"></use></g></g><g><use xlink:href="#b26jwqXCXo" opacity="1" fill="#de4848" fill-opacity="1"></use><g><use xlink:href="#b26jwqXCXo" opacity="1" fill-opacity="0" stroke="#000000" stroke-width="1" stroke-opacity="0"></use></g></g></g></g></svg>