<?xml version="1.0" encoding="UTF-8" standalone="no"?>
<!DOCTYPE svg PUBLIC "-//W3C//DTD SVG 1.1//EN" "http://www.w3.org/Graphics/SVG/1.1/DTD/svg11.dtd">
<svg version="1.1" xmlns="http://www.w3.org/2000/svg" xmlns:xlink="http://www.w3.org/1999/xlink" preserveAspectRatio="xMidYMid meet" viewBox="0 0 640 640" width="75" height="75"><defs><path d="M583.75 3.75C531 3.75 109 3.75 56.25 3.75C27.25 3.75 3.75 27.25 3.75 56.25C3.75 109 3.75 531 3.75 583.75C3.75 612.75 27.25 636.25 56.25 636.25C109 636.25 531 636.25 583.75 636.25C612.75 636.25 636.25 612.75 636.25 583.75C636.25 548.58 636.25 372.75 636.25 56.25C620.58 21.25 603.08 3.75 583.75 3.75ZM33.75 56.25C33.75 43.88 43.88 33.75 56.25 33.75C62.5 33.75 93.75 33.75 150 33.75L153.75 33.75L153.75 37.5L153.75 150L153.75 153.75L150 153.75L37.5 153.75L33.75 153.75L33.75 150C33.75 93.75 33.75 62.5 33.75 56.25ZM606.25 583.75C606.25 596.13 596.13 606.25 583.75 606.25C531 606.25 109 606.25 56.25 606.25C43.88 606.25 33.75 596.13 33.75 583.75C33.75 557.33 33.75 425.25 33.75 187.5L33.75 183.75L37.5 183.75L602.5 183.75L606.25 183.75L606.25 187.5C606.25 425.25 606.25 557.33 606.25 583.75ZM606.25 153.75L602.5 153.75L187.5 153.75L183.75 153.75L183.75 150L183.75 37.5L183.75 33.75L187.5 33.75C425.25 33.75 557.33 33.75 583.75 33.75C596.13 33.75 606.25 43.88 606.25 56.25C606.25 62.5 606.25 93.75 606.25 150L606.25 153.75Z" id="c7PINArPqo"></path><path d="M508.75 78.75C500.5 78.75 493.75 85.5 493.75 93.75C493.75 102 500.5 108.75 508.75 108.75C512.5 108.75 542.5 108.75 546.25 108.75C554.5 108.75 561.25 102 561.25 93.75C561.25 85.5 554.5 78.75 546.25 78.75C538.75 78.75 512.5 78.75 508.75 78.75Z" id="bg8DGIkKx"></path><path d="M395 78.75C386.75 78.75 380 85.5 380 93.75C380 102 386.75 108.75 395 108.75C398.75 108.75 428.75 108.75 432.5 108.75C440.75 108.75 447.5 102 447.5 93.75C447.5 85.5 440.75 78.75 432.5 78.75C425 78.75 398.75 78.75 395 78.75Z" id="b50bn0a5LW"></path><path d="M282.5 78.75C274.25 78.75 267.5 85.5 267.5 93.75C267.5 102 274.25 108.75 282.5 108.75C286.25 108.75 316.25 108.75 320 108.75C328.25 108.75 335 102 335 93.75C335 85.5 328.25 78.75 320 78.75C312.5 78.75 286.25 78.75 282.5 78.75Z" id="k6i4VWRDD"></path><path d="M357.5 230C331.13 230 120.13 230 93.75 230C85.5 230 78.75 236.75 78.75 245C78.75 252.5 78.75 312.5 78.75 320C78.75 328.25 85.5 335 93.75 335C120.13 335 331.13 335 357.5 335C365.75 335 372.5 328.25 372.5 320C372.5 315 372.5 290 372.5 245C368 235 363 230 357.5 230ZM342.5 301.25L342.5 305L338.75 305L112.5 305L108.75 305L108.75 301.25L108.75 263.75L108.75 260L112.5 260L338.75 260L342.5 260L342.5 263.75L342.5 301.25Z" id="a3UFaWFriL"></path><path d="M546.25 230C534.88 230 443.88 230 432.5 230C424.25 230 417.5 236.75 417.5 245C417.5 275.13 417.5 516.13 417.5 546.25C417.5 554.5 424.25 561.25 432.5 561.25C443.88 561.25 534.88 561.25 546.25 561.25C554.5 561.25 561.25 554.5 561.25 546.25C561.25 526.17 561.25 425.75 561.25 245C556.75 235 551.75 230 546.25 230ZM531.25 527.5L531.25 531.25L527.5 531.25L451.25 531.25L447.5 531.25L447.5 527.5L447.5 263.75L447.5 260L451.25 260L527.5 260L531.25 260L531.25 263.75L531.25 527.5Z" id="d39zL7UKHT"></path><path d="M357.5 380C331.13 380 120.13 380 93.75 380C85.5 380 78.75 386.75 78.75 395C78.75 410.13 78.75 531.13 78.75 546.25C78.75 554.5 85.5 561.25 93.75 561.25C120.13 561.25 331.13 561.25 357.5 561.25C365.75 561.25 372.5 554.5 372.5 546.25C372.5 536.17 372.5 485.75 372.5 395C368 385 363 380 357.5 380ZM342.5 527.5L342.5 531.25L338.75 531.25L112.5 531.25L108.75 531.25L108.75 527.5L108.75 413.75L108.75 410L112.5 410L338.75 410L342.5 410L342.5 413.75L342.5 527.5Z" id="ai6pPVwC"></path></defs><g><g><g><use xlink:href="#c7PINArPqo" opacity="1" fill="#de4848" fill-opacity="1"></use><g><use xlink:href="#c7PINArPqo" opacity="1" fill-opacity="0" stroke="#000000" stroke-width="1" stroke-opacity="0"></use></g></g><g><use xlink:href="#bg8DGIkKx" opacity="1" fill="#de4848" fill-opacity="1"></use><g><use xlink:href="#bg8DGIkKx" opacity="1" fill-opacity="0" stroke="#000000" stroke-width="1" stroke-opacity="0"></use></g></g><g><use xlink:href="#b50bn0a5LW" opacity="1" fill="#de4848" fill-opacity="1"></use><g><use xlink:href="#b50bn0a5LW" opacity="1" fill-opacity="0" stroke="#000000" stroke-width="1" stroke-opacity="0"></use></g></g><g><use xlink:href="#k6i4VWRDD" opacity="1" fill="#de4848" fill-opacity="1"></use><g><use xlink:href="#k6i4VWRDD" opacity="1" fill-opacity="0" stroke="#000000" stroke-width="1" stroke-opacity="0"></use></g></g><g><use xlink:href="#a3UFaWFriL" opacity="1" fill="#de4848" fill-opacity="1"></use><g><use xlink:href="#a3UFaWFriL" opacity="1" fill-opacity="0" stroke="#000000" stroke-width="1" stroke-opacity="0"></use></g></g><g><use xlink:href="#d39zL7UKHT" opacity="1" fill="#de4848" fill-opacity="1"></use><g><use xlink:href="#d39zL7UKHT" opacity="1" fill-opacity="0" stroke="#000000" stroke-width="1" stroke-opacity="0"></use></g></g><g><use xlink:href="#ai6pPVwC" opacity="1" fill="#de4848" fill-opacity="1"></use><g><use xlink:href="#ai6pPVwC" opacity="1" fill-opacity="0" stroke="#000000" stroke-width="1" stroke-opacity="0"></use></g></g></g></g></svg>