<svg width="30" height="31" viewBox="0 0 30 31" fill="none" xmlns="http://www.w3.org/2000/svg">
<path d="M15.2958 30.5515C15.1965 30.5515 15.0972 30.5515 14.9971 30.5511C12.6455 30.5568 10.4727 30.497 8.35954 30.3683C6.42221 30.2503 4.6538 29.5803 3.24521 28.431C1.88606 27.3219 0.957907 25.8223 0.486621 23.9743C0.0764495 22.3655 0.0547049 20.7862 0.0338758 19.2586C0.018769 18.1626 0.00320447 16.8639 0 15.5432C0.00320447 14.217 0.018769 12.9182 0.0338758 11.8222C0.0547049 10.2949 0.0764495 8.71562 0.486621 7.10654C0.957907 5.25855 1.88606 3.75895 3.24521 2.64989C4.6538 1.50051 6.42221 0.830537 8.35977 0.712576C10.4729 0.584078 12.6462 0.524067 15.0029 0.529793C17.3552 0.524754 19.5273 0.584078 21.6405 0.712576C23.5778 0.830537 25.3462 1.50051 26.7548 2.64989C28.1142 3.75895 29.0421 5.25855 29.5134 7.10654C29.9235 8.71539 29.9453 10.2949 29.9661 11.8222C29.9812 12.9182 29.997 14.217 30 15.5377V15.5432C29.997 16.8639 29.9812 18.1626 29.9661 19.2586C29.9453 20.7859 29.9238 22.3652 29.5134 23.9743C29.0421 25.8223 28.1142 27.3219 26.7548 28.431C25.3462 29.5803 23.5778 30.2503 21.6405 30.3683C19.6168 30.4915 17.5381 30.5515 15.2958 30.5515ZM14.9971 28.2056C17.3105 28.2111 19.4346 28.1527 21.4981 28.0271C22.963 27.938 24.2331 27.4623 25.2736 26.6132C26.2354 25.8283 26.8978 24.7453 27.2423 23.3944C27.5838 22.0551 27.6035 20.6171 27.6225 19.2265C27.6374 18.1379 27.653 16.8483 27.6562 15.5404C27.653 14.2323 27.6374 12.943 27.6225 11.8543C27.6035 10.4637 27.5838 9.02575 27.2423 7.68626C26.8978 6.33532 26.2354 5.25237 25.2736 4.46741C24.2331 3.61855 22.963 3.14281 21.4981 3.05371C19.4346 2.92796 17.3105 2.87001 15.0026 2.87505C12.6897 2.86955 10.5654 2.92796 8.50191 3.05371C7.03701 3.14281 5.7669 3.61855 4.72636 4.46741C3.76456 5.25237 3.10215 6.33532 2.75767 7.68626C2.41617 9.02575 2.39648 10.4635 2.37749 11.8543C2.36261 12.9439 2.34704 14.2341 2.34384 15.5432C2.34704 16.8465 2.36261 18.1369 2.37749 19.2265C2.39648 20.6171 2.41617 22.0551 2.75767 23.3944C3.10215 24.7453 3.76456 25.8283 4.72636 26.6132C5.7669 27.4621 7.03701 27.9378 8.50191 28.0269C10.5654 28.1527 12.6902 28.2113 14.9971 28.2056ZM14.9413 22.8701C10.9027 22.8701 7.61679 19.582 7.61679 15.5404C7.61679 11.4988 10.9027 8.21079 14.9413 8.21079C18.9801 8.21079 22.2658 11.4988 22.2658 15.5404C22.2658 19.582 18.9801 22.8701 14.9413 22.8701ZM14.9413 10.5563C12.1951 10.5563 9.96063 12.7923 9.96063 15.5404C9.96063 18.2886 12.1951 20.5246 14.9413 20.5246C17.6877 20.5246 19.9219 18.2886 19.9219 15.5404C19.9219 12.7923 17.6877 10.5563 14.9413 10.5563ZM23.0861 5.86531C22.1154 5.86531 21.3283 6.65279 21.3283 7.62442C21.3283 8.59606 22.1154 9.38353 23.0861 9.38353C24.0571 9.38353 24.844 8.59606 24.844 7.62442C24.844 6.65279 24.0571 5.86531 23.0861 5.86531Z" fill="#232323"/>
</svg>
