<svg width="30" height="31" viewBox="0 0 30 31" fill="none" xmlns="http://www.w3.org/2000/svg">
<path d="M9.37546 25.4031H5.2739V12.1516H9.37546V25.4031ZM9.7847 7.9297C9.7847 6.60286 8.70895 5.52591 7.38373 5.52591C6.05347 5.52591 4.98047 6.60286 4.98047 7.9297C4.98047 9.257 6.05347 10.334 7.38373 10.334C8.70895 10.334 9.7847 9.257 9.7847 7.9297ZM24.7266 18.1127C24.7266 14.5554 23.9756 11.9171 19.823 11.9171C17.8276 11.9171 16.4882 12.9157 15.9414 13.9542H15.9375V12.1516H11.9531V25.4031H15.9375V18.8236C15.9375 17.1005 16.3758 15.4313 18.5101 15.4313C20.6154 15.4313 20.6836 17.4017 20.6836 18.9331V25.4031H24.7266V18.1127ZM30 27.1035V4.11867C30 2.17869 28.423 0.600586 26.4844 0.600586H3.51562C1.577 0.600586 0 2.17869 0 4.11867V27.1035C0 29.0435 1.577 30.6216 3.51562 30.6216H26.4844C28.423 30.6216 30 29.0435 30 27.1035ZM26.4844 2.94598C27.1305 2.94598 27.6562 3.47209 27.6562 4.11867V27.1035C27.6562 27.7501 27.1305 28.2762 26.4844 28.2762H3.51562C2.86949 28.2762 2.34375 27.7501 2.34375 27.1035V4.11867C2.34375 3.47209 2.86949 2.94598 3.51562 2.94598H26.4844Z" fill="#232323"/>
</svg>
