<svg width="520" height="520" viewBox="0 0 520 520" fill="none" xmlns="http://www.w3.org/2000/svg">
<path d="M309.962 230.589L308.35 231.27L309.962 230.589C305.709 220.52 301.233 210.614 296.559 200.844C323.077 190.627 350.6 178.005 374.904 163.878C398.918 149.92 419.898 134.428 433.634 118.251C464.113 155.514 482.839 202.726 484.154 254.192C444.409 245.246 400.471 244.79 355.776 252.938C344.453 255.003 333.132 257.6 321.874 260.703C318.129 250.581 314.164 240.54 309.962 230.589ZM236.145 333.344L236.146 333.343C255.031 322.088 277.05 311.463 301.012 302.745C318.043 356.782 328.539 413.754 331.986 472.386C309.384 480.07 285.176 484.25 260 484.25C212.536 484.25 168.472 469.423 132.183 444.154C143.845 406.573 181.745 365.728 236.145 333.344ZM219.005 304.556L219.9 306.06L219.005 304.556C163.629 337.524 122.656 379.864 104.849 421.749C62.2881 380.906 35.75 323.495 35.75 260C35.75 254.018 36.0037 248.09 36.4669 242.224C49.7076 243.559 63.4809 244.23 77.69 244.23C135.792 244.23 200.961 233.14 264.996 212.091C274.269 231.183 282.647 250.797 290.088 270.874C265.478 279.837 241.527 291.149 219.005 304.556ZM260 2.25C118.073 2.25 2.25 118.084 2.25 260C2.25 401.927 118.084 517.75 260 517.75C401.927 517.75 517.75 401.916 517.75 260C517.75 118.073 401.916 2.25 260 2.25ZM260 35.75C317.794 35.75 370.536 57.7274 410.343 93.7598C402.436 103.984 387.857 116.503 366.692 129.735C344.98 143.309 316.437 157.57 281.296 170.824C256.756 125.377 227.48 83.519 193.762 45.7499C214.704 39.2565 236.952 35.75 260 35.75ZM160.557 59.0452C195.009 96.1081 224.739 137.391 249.353 181.934C176.294 205.322 102.537 214.945 41.5981 209.065C56.947 143.233 101.373 88.4457 160.557 59.0452ZM482.466 288.214C473.151 362.056 427.799 424.845 364.621 458.316C360.36 401.413 349.727 345.981 332.841 292.669C380.303 279.867 432.707 275.654 482.466 288.214Z" fill="black" stroke="black" stroke-width="3.5"/>
</svg>
