<svg width="30" height="31" viewBox="0 0 30 31" fill="none" xmlns="http://www.w3.org/2000/svg">
<path d="M26.4844 0.565552H3.51562C1.577 0.565552 0 2.14365 0 4.08364V27.0685C0 29.0084 1.577 30.5865 3.51562 30.5865H26.4844C28.423 30.5865 30 29.0084 30 27.0685V4.08364C30 2.14365 28.423 0.565552 26.4844 0.565552ZM27.6562 27.0685C27.6562 27.715 27.1305 28.2412 26.4844 28.2412H19.5703V19.6805H23.3219L23.7591 16.0451H19.5703V12.1166C19.5703 11.1139 20.3261 10.3576 21.3281 10.3576H23.9648V6.95674C23.2709 6.85871 21.9321 6.7222 21.3281 6.7222C19.9615 6.7222 18.5916 7.29916 17.5699 8.30488C16.5173 9.34107 15.9375 10.6984 15.9375 12.1269V16.0451H12.1289V19.6805H15.9375V28.2412H3.51562C2.86949 28.2412 2.34375 27.715 2.34375 27.0685V4.08364C2.34375 3.43705 2.86949 2.91094 3.51562 2.91094H26.4844C27.1305 2.91094 27.6562 3.43705 27.6562 4.08364V27.0685Z" fill="#232323"/>
</svg>
