<svg width="518" height="518" viewBox="0 0 518 518" fill="none" xmlns="http://www.w3.org/2000/svg">
<path d="M155.953 321.47C141.714 309.819 133.654 296.289 129.067 284.454C117.22 252.757 123.463 213.04 144.755 187.91L144.755 187.909C148.243 183.785 151.166 176.736 148.587 169.3C146.393 162.571 145.424 153.794 145.387 145.618C145.353 138.043 146.118 131.153 147.358 126.996C154.768 128.24 162.322 131.464 169.711 135.416C175.226 138.365 180.579 141.68 185.687 144.843C187.752 146.121 189.777 147.375 191.756 148.57L191.764 148.575L191.772 148.58C195.051 150.493 197.606 151.226 199.769 151.503C200.837 151.639 201.787 151.661 202.63 151.67C202.747 151.671 202.861 151.672 202.972 151.673C203.683 151.68 204.285 151.685 204.876 151.744L205.067 151.763L205.255 151.724C207.338 151.29 209.629 150.744 212.149 150.143C223.012 147.554 238.137 143.949 259.301 143.949C275.379 143.949 292.365 146.33 309.059 151.1L309.242 151.153L309.432 151.148C309.997 151.135 310.661 151.237 311.595 151.38L311.836 151.416C312.852 151.571 314.073 151.743 315.481 151.754C318.336 151.775 321.855 151.133 326.232 148.58L326.242 148.574L326.252 148.567C328.174 147.396 330.116 146.188 332.076 144.969C337.434 141.637 342.93 138.218 348.546 135.223C355.863 131.32 363.272 128.201 370.64 126.992C371.881 131.149 372.647 138.041 372.613 145.618C372.577 153.794 371.609 162.571 369.417 169.3C366.833 176.735 369.757 183.785 373.249 187.909L374.203 187.102L373.249 187.909C394.537 213.043 400.78 252.757 388.933 284.454C384.346 296.288 376.286 309.819 362.047 321.47C347.808 333.12 327.327 342.942 297.819 347.263L297.807 347.265L274.71 350.866L272.783 351.167L273.86 352.792C276.888 357.36 279.338 361.072 281.349 364.119C288.677 375.219 290.175 377.49 292.53 380.183L292.543 380.202C295.535 384.243 298.045 387.636 299.842 392.058C301.641 396.484 302.75 402.015 302.75 410.301V479.481C288.732 482.326 273.869 483.75 259 483.75C244.131 483.75 229.268 482.326 215.25 479.481V410.301C215.25 402.015 216.359 396.484 218.158 392.058C219.956 387.634 222.47 384.24 225.465 380.196L225.474 380.183C227.874 377.434 229.588 374.836 236.503 364.35C238.544 361.254 241.039 357.47 244.14 352.792L245.217 351.167L243.29 350.866L220.193 347.265L220.181 347.263C190.673 342.942 170.192 333.12 155.953 321.47ZM395.616 104.469L395.612 104.464C390.588 97.5593 383.619 93.75 374.801 93.75H374.799H374.797H374.796H374.794H374.792H374.79H374.789H374.787H374.785H374.784H374.782H374.78H374.778H374.777H374.775H374.773H374.772H374.77H374.769H374.767H374.765H374.764H374.762H374.76H374.759H374.757H374.756H374.754H374.753H374.751H374.749H374.748H374.746H374.745H374.743H374.742H374.74H374.739H374.737H374.736H374.734H374.733H374.731H374.73H374.728H374.727H374.725H374.724H374.722H374.721H374.72H374.718H374.717H374.715H374.714H374.712H374.711H374.71H374.708H374.707H374.706H374.704H374.703H374.702H374.7H374.699H374.697H374.696H374.695H374.694H374.692H374.691H374.69H374.688H374.687H374.686H374.684H374.683H374.682H374.681H374.679H374.678H374.677H374.676H374.674H374.673H374.672H374.671H374.67H374.668H374.667H374.666H374.665H374.664H374.663H374.661H374.66H374.659H374.658H374.657H374.656H374.654H374.653H374.652H374.651H374.65H374.649H374.648H374.647H374.646H374.645H374.643H374.642H374.641H374.64H374.639H374.638H374.637H374.636H374.635H374.634H374.633H374.632H374.631H374.63H374.629H374.628H374.627H374.626H374.625H374.624H374.623H374.622H374.621H374.62H374.619H374.618H374.617H374.616H374.615H374.614H374.614H374.613H374.612H374.611H374.61H374.609H374.608H374.607H374.606H374.605H374.605H374.604H374.603H374.602H374.601H374.6H374.599H374.599H374.598H374.597H374.596H374.595H374.594H374.594H374.593H374.592H374.591H374.59H374.59H374.589H374.588H374.587H374.587H374.586H374.585H374.584H374.583H374.583H374.582H374.581H374.581H374.58H374.579H374.578H374.578H374.577H374.576H374.576H374.575H374.574H374.573H374.573H374.572H374.571H374.571H374.57H374.569H374.569H374.568H374.567H374.567H374.566H374.565H374.565H374.564H374.564H374.563H374.562H374.562H374.561H374.561H374.56H374.559H374.559H374.558H374.558H374.557H374.556H374.556H374.555H374.555H374.554H374.554H374.553H374.552H374.552H374.551H374.551H374.55H374.55H374.549H374.549H374.548H374.548H374.547H374.547H374.546H374.546H374.545H374.545H374.544H374.544H374.543H374.543H374.542H374.542H374.541H374.541H374.54H374.54H374.539H374.539H374.538H374.538H374.538H374.537H374.537H374.536H374.536H374.535H374.535H374.535H374.534H374.534H374.533H374.533H374.533H374.532H374.532H374.531H374.531H374.531H374.53H374.53H374.529H374.529H374.529H374.528H374.528H374.528H374.527H374.527H374.527H374.526H374.526H374.526H374.525H374.525H374.525H374.524H374.524H374.524H374.523H374.523H374.523H374.522H374.522H374.522H374.521H374.521H374.521H374.52H374.52H374.52H374.52H374.519H374.519H374.519H374.518H374.518H374.518H374.518H374.517H374.517H374.517H374.517H374.516H374.516H374.516H374.516H374.515H374.515H374.515H374.515H374.514H374.514H374.514H374.513H374.513H374.512H374.512H374.512H374.511H374.511H374.51H374.51H374.51H374.509H374.509H374.509H374.508H374.508H374.508H374.507H374.507H374.507H374.507H374.506H374.506H374.506H374.506H374.505H374.505H374.505H374.504H374.504H374.504H374.504H374.503H374.503H374.503H374.502H374.502H374.502H374.502H374.501H374.501H374.501H374.501H374.5H374.5H374.466L374.432 93.7518C351.829 94.974 333.843 105.927 315.205 117.277C314.506 117.702 313.807 118.128 313.107 118.554C295.169 113.816 276.935 111.449 258.699 111.449C240.18 111.449 221.662 114.109 205.192 118.552C204.895 118.373 204.599 118.194 204.303 118.016C184.229 105.904 166.106 94.9697 142.365 93.7516L142.333 93.75H142.301C134.355 93.75 127.395 97.5817 122.388 104.464L122.384 104.469C116.776 112.26 114.058 124.325 113.266 136.808C112.486 149.104 113.564 162.017 115.757 172.105C90.2737 206.041 83.4517 255.131 98.8298 295.838C113.232 334.543 145.43 361.613 190.541 374.184C187.183 380.488 184.56 388.414 183.416 398.757C174.647 401.688 167.179 402.534 160.3 400.512C152.842 398.307 146.963 393.331 141.774 384.603L141.773 384.603C129.743 364.392 109.068 347.579 85.2722 349.767L84.0321 349.881L84.1416 351.122L86.7783 381.004L86.8885 382.254L88.1375 382.139C93.0119 381.693 98.0262 384.046 102.605 387.827C107.162 391.59 111.118 396.633 113.827 401.204L113.828 401.205C123.09 416.803 135.622 427.109 151.095 431.679L151.096 431.68C162.041 434.904 172.092 434.97 182.75 432.883V470.031C96.7826 439.125 34.25 356.623 34.25 260C34.25 136.484 135.498 34.25 259 34.25C382.502 34.25 483.75 136.484 483.75 260C483.75 356.623 421.217 439.125 335.25 470.031V410.301C335.25 393.933 331.984 382.649 327.46 374.184C372.572 361.612 404.77 334.541 419.172 295.834C434.547 254.834 427.727 206.039 402.243 172.105C404.438 162.018 405.516 149.104 404.737 136.808C403.945 124.325 401.226 112.26 395.616 104.469ZM259 1.75C117.604 1.75 1.75 118.617 1.75 260C1.75 400.574 116.56 516.25 259 516.25C401.263 516.25 516.25 400.747 516.25 260C516.25 118.617 400.396 1.75 259 1.75Z" fill="black" stroke="black" stroke-width="2.5"/>
</svg>
