<svg width="305" height="315" viewBox="0 0 305 315" fill="none" xmlns="http://www.w3.org/2000/svg">
<path d="M304.539 140.177C304.539 158.204 301.746 174.708 296.16 189.688C290.574 204.669 282.703 216.285 272.547 224.537C262.391 232.789 250.711 236.915 237.508 236.915C226.59 236.915 217.386 233.614 209.896 227.013C202.405 220.411 197.962 211.969 196.565 201.686H195.042C189.964 212.73 182.664 221.363 173.143 227.584C163.748 233.805 152.576 236.915 139.627 236.915C120.584 236.915 105.667 230.44 94.876 217.491C84.2119 204.415 78.8799 186.705 78.8799 164.361C78.8799 138.463 86.3701 117.452 101.351 101.329C116.331 85.0791 136.009 76.9541 160.384 76.9541C169.017 76.9541 178.792 77.7793 189.71 79.4297C200.628 80.9531 210.467 83.1113 219.227 85.9043L214.466 175.406V179.596C214.466 202.193 222.908 213.492 239.793 213.492C251.346 213.492 260.74 206.7 267.977 193.116C275.213 179.405 278.831 161.632 278.831 139.796C278.831 116.817 274.134 96.6953 264.739 79.4297C255.345 62.1641 241.951 48.8975 224.559 39.6299C207.293 30.2354 187.425 25.5381 164.954 25.5381C136.644 25.5381 112.015 31.4414 91.0674 43.248C70.1201 54.9277 54.124 71.6855 43.0791 93.5215C32.0342 115.23 26.5117 140.367 26.5117 168.932C26.5117 207.652 36.7314 237.423 57.1709 258.243C77.6104 279.063 107.063 289.474 145.53 289.474C172.19 289.474 199.866 284.015 228.558 273.097V298.424C204.183 309.088 176.507 314.42 145.53 314.42C99.4463 314.42 63.6455 301.788 38.1279 276.524C12.7373 251.134 0.0419922 215.714 0.0419922 170.265C0.0419922 137.257 6.83398 107.867 20.418 82.0957C34.002 56.3242 53.3623 36.3926 78.499 22.3008C103.636 8.08203 132.454 0.972656 164.954 0.972656C192.249 0.972656 216.497 6.74902 237.698 18.3018C259.026 29.7275 275.467 46.041 287.02 67.2422C298.699 88.3164 304.539 112.628 304.539 140.177ZM107.635 165.123C107.635 197.369 120.013 213.492 144.769 213.492C171.048 213.492 185.33 193.624 187.615 153.888L190.281 104.186C181.141 101.646 171.175 100.377 160.384 100.377C143.88 100.377 130.931 106.09 121.536 117.516C112.269 128.941 107.635 144.811 107.635 165.123Z" fill="#DE4848" fill-opacity="0.2"/>
</svg>
