<svg width="391" height="403" viewBox="0 0 391 403" fill="none" xmlns="http://www.w3.org/2000/svg">
<path d="M390.922 179.021C390.922 202.133 387.341 223.292 380.18 242.498C373.018 261.704 362.927 276.596 349.906 287.176C336.885 297.755 321.911 303.045 304.984 303.045C290.987 303.045 279.187 298.813 269.584 290.35C259.981 281.886 254.285 271.062 252.494 257.879H250.541C244.031 272.039 234.672 283.107 222.465 291.082C210.421 299.057 196.098 303.045 179.496 303.045C155.082 303.045 135.958 294.744 122.123 278.143C108.451 261.378 101.615 238.673 101.615 210.027C101.615 176.824 111.218 149.887 130.424 129.217C149.63 108.383 174.857 97.9668 206.107 97.9668C217.175 97.9668 229.708 99.0247 243.705 101.141C257.702 103.094 270.316 105.861 281.547 109.441L275.443 224.188V229.559C275.443 258.53 286.267 273.016 307.914 273.016C322.725 273.016 334.77 264.308 344.047 246.893C353.324 229.314 357.963 206.528 357.963 178.533C357.963 149.074 351.941 123.276 339.896 101.141C327.852 79.0052 310.681 61.9967 288.383 50.1152C266.247 38.071 240.775 32.0488 211.967 32.0488C175.671 32.0488 144.096 39.6172 117.24 54.7539C90.3848 69.7279 69.877 91.2122 55.7168 119.207C41.5566 147.039 34.4766 179.266 34.4766 215.887C34.4766 265.529 47.5788 303.696 73.7832 330.389C99.9876 357.081 137.748 370.428 187.064 370.428C221.244 370.428 256.726 363.429 293.51 349.432V381.902C262.26 395.574 226.778 402.41 187.064 402.41C127.982 402.41 82.084 386.215 49.3691 353.826C16.8171 321.274 0.541016 275.864 0.541016 217.596C0.541016 175.278 9.2487 137.599 26.6641 104.559C44.0794 71.5182 68.9004 45.9648 101.127 27.8984C133.354 9.66927 170.3 0.554688 211.967 0.554688C246.96 0.554688 278.048 7.96029 305.229 22.7715C332.572 37.4199 353.65 58.3346 368.461 85.5156C383.435 112.534 390.922 143.702 390.922 179.021ZM138.48 211.004C138.48 252.345 154.35 273.016 186.088 273.016C219.779 273.016 238.09 247.544 241.02 196.6L244.438 132.879C232.719 129.624 219.942 127.996 206.107 127.996C184.949 127.996 168.347 135.32 156.303 149.969C144.421 164.617 138.48 184.962 138.48 211.004Z" fill="#DE4848" fill-opacity="0.2"/>
</svg>
