<svg width="122" height="117" viewBox="0 0 122 117" fill="none" xmlns="http://www.w3.org/2000/svg">
<path d="M9.4 19.35V35.5C9.4 36.8333 9.68333 37.7833 10.25 38.35C10.8167 38.8833 11.8 39.15 13.2 39.15H16.55V43H12.45C9.91667 43 8.01667 42.4167 6.75 41.25C5.48333 40.0833 4.85 38.1667 4.85 35.5V19.35H1.3V15.6H4.85V8.7H9.4V15.6H16.55V19.35H9.4ZM29.6129 15.15C31.9796 15.15 34.0462 15.6667 35.8129 16.7C37.6129 17.7333 38.9462 19.0333 39.8129 20.6V15.6H44.4129V43.6C44.4129 46.1 43.8796 48.3167 42.8129 50.25C41.7462 52.2167 40.2129 53.75 38.2129 54.85C36.2462 55.95 33.9462 56.5 31.3129 56.5C27.7129 56.5 24.7129 55.65 22.3129 53.95C19.9129 52.25 18.4962 49.9333 18.0629 47H22.5629C23.0629 48.6667 24.0962 50 25.6629 51C27.2296 52.0333 29.1129 52.55 31.3129 52.55C33.8129 52.55 35.8462 51.7667 37.4129 50.2C39.0129 48.6333 39.8129 46.4333 39.8129 43.6V37.85C38.9129 39.45 37.5796 40.7833 35.8129 41.85C34.0462 42.9167 31.9796 43.45 29.6129 43.45C27.1796 43.45 24.9629 42.85 22.9629 41.65C20.9962 40.45 19.4462 38.7667 18.3129 36.6C17.1796 34.4333 16.6129 31.9667 16.6129 29.2C16.6129 26.4 17.1796 23.95 18.3129 21.85C19.4462 19.7167 20.9962 18.0667 22.9629 16.9C24.9629 15.7333 27.1796 15.15 29.6129 15.15ZM39.8129 29.25C39.8129 27.1833 39.3962 25.3833 38.5629 23.85C37.7296 22.3167 36.5962 21.15 35.1629 20.35C33.7629 19.5167 32.2129 19.1 30.5129 19.1C28.8129 19.1 27.2629 19.5 25.8629 20.3C24.4629 21.1 23.3462 22.2667 22.5129 23.8C21.6796 25.3333 21.2629 27.1333 21.2629 29.2C21.2629 31.3 21.6796 33.1333 22.5129 34.7C23.3462 36.2333 24.4629 37.4167 25.8629 38.25C27.2629 39.05 28.8129 39.45 30.5129 39.45C32.2129 39.45 33.7629 39.05 35.1629 38.25C36.5962 37.4167 37.7296 36.2333 38.5629 34.7C39.3962 33.1333 39.8129 31.3167 39.8129 29.25Z" fill="black"/>
<path d="M49.802 43.3C48.9353 43.3 48.202 43 47.602 42.4C47.002 41.8 46.702 41.0667 46.702 40.2C46.702 39.3333 47.002 38.6 47.602 38C48.202 37.4 48.9353 37.1 49.802 37.1C50.6353 37.1 51.3353 37.4 51.902 38C52.502 38.6 52.802 39.3333 52.802 40.2C52.802 41.0667 52.502 41.8 51.902 42.4C51.3353 43 50.6353 43.3 49.802 43.3Z" fill="#DE4848"/>
<path d="M5.292 77.454C6.66 77.454 7.842 77.712 8.838 78.228C9.846 78.732 10.614 79.458 11.142 80.406C11.682 81.354 11.952 82.47 11.952 83.754C11.952 85.038 11.682 86.154 11.142 87.102C10.614 88.038 9.846 88.758 8.838 89.262C7.842 89.754 6.66 90 5.292 90H1.386V77.454H5.292ZM5.292 88.65C6.912 88.65 8.148 88.224 9 87.372C9.852 86.508 10.278 85.302 10.278 83.754C10.278 82.194 9.846 80.976 8.982 80.1C8.13 79.224 6.9 78.786 5.292 78.786H3.024V88.65H5.292ZM23.1126 84.69C23.1126 85.002 23.0946 85.332 23.0586 85.68H15.1746C15.2346 86.652 15.5646 87.414 16.1646 87.966C16.7766 88.506 17.5146 88.776 18.3786 88.776C19.0866 88.776 19.6746 88.614 20.1426 88.29C20.6226 87.954 20.9586 87.51 21.1506 86.958H22.9146C22.6506 87.906 22.1226 88.68 21.3306 89.28C20.5386 89.868 19.5546 90.162 18.3786 90.162C17.4426 90.162 16.6026 89.952 15.8586 89.532C15.1266 89.112 14.5506 88.518 14.1306 87.75C13.7106 86.97 13.5006 86.07 13.5006 85.05C13.5006 84.03 13.7046 83.136 14.1126 82.368C14.5206 81.6 15.0906 81.012 15.8226 80.604C16.5666 80.184 17.4186 79.974 18.3786 79.974C19.3146 79.974 20.1426 80.178 20.8626 80.586C21.5826 80.994 22.1346 81.558 22.5186 82.278C22.9146 82.986 23.1126 83.79 23.1126 84.69ZM21.4206 84.348C21.4206 83.724 21.2826 83.19 21.0066 82.746C20.7306 82.29 20.3526 81.948 19.8726 81.72C19.4046 81.48 18.8826 81.36 18.3066 81.36C17.4786 81.36 16.7706 81.624 16.1826 82.152C15.6066 82.68 15.2766 83.412 15.1926 84.348H21.4206ZM28.7667 90.162C28.0107 90.162 27.3327 90.036 26.7327 89.784C26.1327 89.52 25.6587 89.16 25.3107 88.704C24.9627 88.236 24.7707 87.702 24.7347 87.102H26.4267C26.4747 87.594 26.7027 87.996 27.1107 88.308C27.5307 88.62 28.0767 88.776 28.7487 88.776C29.3727 88.776 29.8647 88.638 30.2247 88.362C30.5847 88.086 30.7647 87.738 30.7647 87.318C30.7647 86.886 30.5727 86.568 30.1887 86.364C29.8047 86.148 29.2107 85.938 28.4067 85.734C27.6747 85.542 27.0747 85.35 26.6067 85.158C26.1507 84.954 25.7547 84.66 25.4187 84.276C25.0947 83.88 24.9327 83.364 24.9327 82.728C24.9327 82.224 25.0827 81.762 25.3827 81.342C25.6827 80.922 26.1087 80.592 26.6607 80.352C27.2127 80.1 27.8427 79.974 28.5507 79.974C29.6427 79.974 30.5247 80.25 31.1967 80.802C31.8687 81.354 32.2287 82.11 32.2767 83.07H30.6387C30.6027 82.554 30.3927 82.14 30.0087 81.828C29.6367 81.516 29.1327 81.36 28.4967 81.36C27.9087 81.36 27.4407 81.486 27.0927 81.738C26.7447 81.99 26.5707 82.32 26.5707 82.728C26.5707 83.052 26.6727 83.322 26.8767 83.538C27.0927 83.742 27.3567 83.91 27.6687 84.042C27.9927 84.162 28.4367 84.3 29.0007 84.456C29.7087 84.648 30.2847 84.84 30.7287 85.032C31.1727 85.212 31.5507 85.488 31.8627 85.86C32.1867 86.232 32.3547 86.718 32.3667 87.318C32.3667 87.858 32.2167 88.344 31.9167 88.776C31.6167 89.208 31.1907 89.55 30.6387 89.802C30.0987 90.042 29.4747 90.162 28.7667 90.162ZM35.525 78.534C35.213 78.534 34.949 78.426 34.733 78.21C34.517 77.994 34.409 77.73 34.409 77.418C34.409 77.106 34.517 76.842 34.733 76.626C34.949 76.41 35.213 76.302 35.525 76.302C35.825 76.302 36.077 76.41 36.281 76.626C36.497 76.842 36.605 77.106 36.605 77.418C36.605 77.73 36.497 77.994 36.281 78.21C36.077 78.426 35.825 78.534 35.525 78.534ZM36.317 80.136V90H34.679V80.136H36.317ZM43.1767 79.974C44.0287 79.974 44.7727 80.16 45.4087 80.532C46.0567 80.904 46.5367 81.372 46.8487 81.936V80.136H48.5047V90.216C48.5047 91.116 48.3127 91.914 47.9287 92.61C47.5447 93.318 46.9927 93.87 46.2727 94.266C45.5647 94.662 44.7367 94.86 43.7887 94.86C42.4927 94.86 41.4127 94.554 40.5487 93.942C39.6847 93.33 39.1747 92.496 39.0187 91.44H40.6387C40.8187 92.04 41.1907 92.52 41.7547 92.88C42.3187 93.252 42.9967 93.438 43.7887 93.438C44.6887 93.438 45.4207 93.156 45.9847 92.592C46.5607 92.028 46.8487 91.236 46.8487 90.216V88.146C46.5247 88.722 46.0447 89.202 45.4087 89.586C44.7727 89.97 44.0287 90.162 43.1767 90.162C42.3007 90.162 41.5027 89.946 40.7827 89.514C40.0747 89.082 39.5167 88.476 39.1087 87.696C38.7007 86.916 38.4967 86.028 38.4967 85.032C38.4967 84.024 38.7007 83.142 39.1087 82.386C39.5167 81.618 40.0747 81.024 40.7827 80.604C41.5027 80.184 42.3007 79.974 43.1767 79.974ZM46.8487 85.05C46.8487 84.306 46.6987 83.658 46.3987 83.106C46.0987 82.554 45.6907 82.134 45.1747 81.846C44.6707 81.546 44.1127 81.396 43.5007 81.396C42.8887 81.396 42.3307 81.54 41.8267 81.828C41.3227 82.116 40.9207 82.536 40.6207 83.088C40.3207 83.64 40.1707 84.288 40.1707 85.032C40.1707 85.788 40.3207 86.448 40.6207 87.012C40.9207 87.564 41.3227 87.99 41.8267 88.29C42.3307 88.578 42.8887 88.722 43.5007 88.722C44.1127 88.722 44.6707 88.578 45.1747 88.29C45.6907 87.99 46.0987 87.564 46.3987 87.012C46.6987 86.448 46.8487 85.794 46.8487 85.05ZM56.0787 79.956C57.2787 79.956 58.2507 80.322 58.9947 81.054C59.7387 81.774 60.1107 82.818 60.1107 84.186V90H58.4907V84.42C58.4907 83.436 58.2447 82.686 57.7527 82.17C57.2607 81.642 56.5887 81.378 55.7367 81.378C54.8727 81.378 54.1827 81.648 53.6667 82.188C53.1627 82.728 52.9107 83.514 52.9107 84.546V90H51.2727V80.136H52.9107V81.54C53.2347 81.036 53.6727 80.646 54.2247 80.37C54.7887 80.094 55.4067 79.956 56.0787 79.956ZM5.292 99.454C6.66 99.454 7.842 99.712 8.838 100.228C9.846 100.732 10.614 101.458 11.142 102.406C11.682 103.354 11.952 104.47 11.952 105.754C11.952 107.038 11.682 108.154 11.142 109.102C10.614 110.038 9.846 110.758 8.838 111.262C7.842 111.754 6.66 112 5.292 112H1.386V99.454H5.292ZM5.292 110.65C6.912 110.65 8.148 110.224 9 109.372C9.852 108.508 10.278 107.302 10.278 105.754C10.278 104.194 9.846 102.976 8.982 102.1C8.13 101.224 6.9 100.786 5.292 100.786H3.024V110.65H5.292ZM23.1126 106.69C23.1126 107.002 23.0946 107.332 23.0586 107.68H15.1746C15.2346 108.652 15.5646 109.414 16.1646 109.966C16.7766 110.506 17.5146 110.776 18.3786 110.776C19.0866 110.776 19.6746 110.614 20.1426 110.29C20.6226 109.954 20.9586 109.51 21.1506 108.958H22.9146C22.6506 109.906 22.1226 110.68 21.3306 111.28C20.5386 111.868 19.5546 112.162 18.3786 112.162C17.4426 112.162 16.6026 111.952 15.8586 111.532C15.1266 111.112 14.5506 110.518 14.1306 109.75C13.7106 108.97 13.5006 108.07 13.5006 107.05C13.5006 106.03 13.7046 105.136 14.1126 104.368C14.5206 103.6 15.0906 103.012 15.8226 102.604C16.5666 102.184 17.4186 101.974 18.3786 101.974C19.3146 101.974 20.1426 102.178 20.8626 102.586C21.5826 102.994 22.1346 103.558 22.5186 104.278C22.9146 104.986 23.1126 105.79 23.1126 106.69ZM21.4206 106.348C21.4206 105.724 21.2826 105.19 21.0066 104.746C20.7306 104.29 20.3526 103.948 19.8726 103.72C19.4046 103.48 18.8826 103.36 18.3066 103.36C17.4786 103.36 16.7706 103.624 16.1826 104.152C15.6066 104.68 15.2766 105.412 15.1926 106.348H21.4206ZM28.9467 110.488L32.0067 102.136H33.7527L29.8827 112H27.9747L24.1047 102.136H25.8687L28.9467 110.488ZM44.3645 106.69C44.3645 107.002 44.3465 107.332 44.3105 107.68H36.4265C36.4865 108.652 36.8165 109.414 37.4165 109.966C38.0285 110.506 38.7665 110.776 39.6305 110.776C40.3385 110.776 40.9265 110.614 41.3945 110.29C41.8745 109.954 42.2105 109.51 42.4025 108.958H44.1665C43.9025 109.906 43.3745 110.68 42.5825 111.28C41.7905 111.868 40.8065 112.162 39.6305 112.162C38.6945 112.162 37.8545 111.952 37.1105 111.532C36.3785 111.112 35.8025 110.518 35.3825 109.75C34.9625 108.97 34.7525 108.07 34.7525 107.05C34.7525 106.03 34.9565 105.136 35.3645 104.368C35.7725 103.6 36.3425 103.012 37.0745 102.604C37.8185 102.184 38.6705 101.974 39.6305 101.974C40.5665 101.974 41.3945 102.178 42.1145 102.586C42.8345 102.994 43.3865 103.558 43.7705 104.278C44.1665 104.986 44.3645 105.79 44.3645 106.69ZM42.6725 106.348C42.6725 105.724 42.5345 105.19 42.2585 104.746C41.9825 104.29 41.6045 103.948 41.1245 103.72C40.6565 103.48 40.1345 103.36 39.5585 103.36C38.7305 103.36 38.0225 103.624 37.4345 104.152C36.8585 104.68 36.5285 105.412 36.4445 106.348H42.6725ZM48.1646 98.68V112H46.5266V98.68H48.1646ZM55.2583 112.162C54.3343 112.162 53.4943 111.952 52.7383 111.532C51.9943 111.112 51.4063 110.518 50.9743 109.75C50.5543 108.97 50.3443 108.07 50.3443 107.05C50.3443 106.042 50.5603 105.154 50.9923 104.386C51.4363 103.606 52.0363 103.012 52.7923 102.604C53.5483 102.184 54.3943 101.974 55.3303 101.974C56.2663 101.974 57.1123 102.184 57.8683 102.604C58.6243 103.012 59.2183 103.6 59.6503 104.368C60.0943 105.136 60.3163 106.03 60.3163 107.05C60.3163 108.07 60.0883 108.97 59.6323 109.75C59.1883 110.518 58.5823 111.112 57.8143 111.532C57.0463 111.952 56.1943 112.162 55.2583 112.162ZM55.2583 110.722C55.8463 110.722 56.3983 110.584 56.9143 110.308C57.4303 110.032 57.8443 109.618 58.1563 109.066C58.4803 108.514 58.6423 107.842 58.6423 107.05C58.6423 106.258 58.4863 105.586 58.1743 105.034C57.8623 104.482 57.4543 104.074 56.9503 103.81C56.4463 103.534 55.9003 103.396 55.3123 103.396C54.7123 103.396 54.1603 103.534 53.6563 103.81C53.1643 104.074 52.7683 104.482 52.4683 105.034C52.1683 105.586 52.0183 106.258 52.0183 107.05C52.0183 107.854 52.1623 108.532 52.4503 109.084C52.7503 109.636 53.1463 110.05 53.6383 110.326C54.1303 110.59 54.6703 110.722 55.2583 110.722ZM64.108 103.954C64.432 103.39 64.912 102.922 65.548 102.55C66.196 102.166 66.946 101.974 67.798 101.974C68.674 101.974 69.466 102.184 70.174 102.604C70.894 103.024 71.458 103.618 71.866 104.386C72.274 105.142 72.478 106.024 72.478 107.032C72.478 108.028 72.274 108.916 71.866 109.696C71.458 110.476 70.894 111.082 70.174 111.514C69.466 111.946 68.674 112.162 67.798 112.162C66.958 112.162 66.214 111.976 65.566 111.604C64.93 111.22 64.444 110.746 64.108 110.182V116.68H62.47V102.136H64.108V103.954ZM70.804 107.032C70.804 106.288 70.654 105.64 70.354 105.088C70.054 104.536 69.646 104.116 69.13 103.828C68.626 103.54 68.068 103.396 67.456 103.396C66.856 103.396 66.298 103.546 65.782 103.846C65.278 104.134 64.87 104.56 64.558 105.124C64.258 105.676 64.108 106.318 64.108 107.05C64.108 107.794 64.258 108.448 64.558 109.012C64.87 109.564 65.278 109.99 65.782 110.29C66.298 110.578 66.856 110.722 67.456 110.722C68.068 110.722 68.626 110.578 69.13 110.29C69.646 109.99 70.054 109.564 70.354 109.012C70.654 108.448 70.804 107.788 70.804 107.032ZM86.496 101.956C87.264 101.956 87.948 102.118 88.548 102.442C89.148 102.754 89.622 103.228 89.97 103.864C90.318 104.5 90.492 105.274 90.492 106.186V112H88.872V106.42C88.872 105.436 88.626 104.686 88.134 104.17C87.654 103.642 87 103.378 86.172 103.378C85.32 103.378 84.642 103.654 84.138 104.206C83.634 104.746 83.382 105.532 83.382 106.564V112H81.762V106.42C81.762 105.436 81.516 104.686 81.024 104.17C80.544 103.642 79.89 103.378 79.062 103.378C78.21 103.378 77.532 103.654 77.028 104.206C76.524 104.746 76.272 105.532 76.272 106.564V112H74.634V102.136H76.272V103.558C76.596 103.042 77.028 102.646 77.568 102.37C78.12 102.094 78.726 101.956 79.386 101.956C80.214 101.956 80.946 102.142 81.582 102.514C82.218 102.886 82.692 103.432 83.004 104.152C83.28 103.456 83.736 102.916 84.372 102.532C85.008 102.148 85.716 101.956 86.496 101.956ZM102.179 106.69C102.179 107.002 102.161 107.332 102.125 107.68H94.241C94.301 108.652 94.631 109.414 95.231 109.966C95.843 110.506 96.581 110.776 97.445 110.776C98.153 110.776 98.741 110.614 99.209 110.29C99.689 109.954 100.025 109.51 100.217 108.958H101.981C101.717 109.906 101.189 110.68 100.397 111.28C99.605 111.868 98.621 112.162 97.445 112.162C96.509 112.162 95.669 111.952 94.925 111.532C94.193 111.112 93.617 110.518 93.197 109.75C92.777 108.97 92.567 108.07 92.567 107.05C92.567 106.03 92.771 105.136 93.179 104.368C93.587 103.6 94.157 103.012 94.889 102.604C95.633 102.184 96.485 101.974 97.445 101.974C98.381 101.974 99.209 102.178 99.929 102.586C100.649 102.994 101.201 103.558 101.585 104.278C101.981 104.986 102.179 105.79 102.179 106.69ZM100.487 106.348C100.487 105.724 100.349 105.19 100.073 104.746C99.797 104.29 99.419 103.948 98.939 103.72C98.471 103.48 97.949 103.36 97.373 103.36C96.545 103.36 95.837 103.624 95.249 104.152C94.673 104.68 94.343 105.412 94.259 106.348H100.487ZM109.147 101.956C110.347 101.956 111.319 102.322 112.063 103.054C112.807 103.774 113.179 104.818 113.179 106.186V112H111.559V106.42C111.559 105.436 111.313 104.686 110.821 104.17C110.329 103.642 109.657 103.378 108.805 103.378C107.941 103.378 107.251 103.648 106.735 104.188C106.231 104.728 105.979 105.514 105.979 106.546V112H104.341V102.136H105.979V103.54C106.303 103.036 106.741 102.646 107.293 102.37C107.857 102.094 108.475 101.956 109.147 101.956ZM117.853 103.486V109.3C117.853 109.78 117.955 110.122 118.159 110.326C118.363 110.518 118.717 110.614 119.221 110.614H120.427V112H118.951C118.039 112 117.355 111.79 116.899 111.37C116.443 110.95 116.215 110.26 116.215 109.3V103.486H114.937V102.136H116.215V99.652H117.853V102.136H120.427V103.486H117.853Z" fill="black"/>
<path d="M77.2152 90L75.5772 88.344C74.9652 88.98 74.3112 89.454 73.6152 89.766C72.9192 90.066 72.1332 90.216 71.2572 90.216C70.3932 90.216 69.6252 90.06 68.9532 89.748C68.2932 89.436 67.7772 88.992 67.4052 88.416C67.0452 87.84 66.8652 87.168 66.8652 86.4C66.8652 85.524 67.1112 84.756 67.6032 84.096C68.1072 83.424 68.8452 82.896 69.8172 82.512C69.4332 82.056 69.1572 81.636 68.9892 81.252C68.8212 80.868 68.7372 80.448 68.7372 79.992C68.7372 79.464 68.8692 78.99 69.1332 78.57C69.4092 78.138 69.7992 77.802 70.3032 77.562C70.8072 77.322 71.3892 77.202 72.0492 77.202C72.6972 77.202 73.2612 77.328 73.7412 77.58C74.2212 77.832 74.5812 78.186 74.8212 78.642C75.0612 79.086 75.1692 79.584 75.1452 80.136H73.5072C73.5192 79.644 73.3812 79.26 73.0932 78.984C72.8052 78.696 72.4332 78.552 71.9772 78.552C71.4972 78.552 71.1072 78.69 70.8072 78.966C70.5192 79.23 70.3752 79.572 70.3752 79.992C70.3752 80.352 70.4712 80.7 70.6632 81.036C70.8672 81.372 71.2032 81.786 71.6712 82.278L75.4152 86.04L75.7392 85.536L76.9632 83.484H78.7272L77.2512 86.04C77.0472 86.4 76.8072 86.778 76.5312 87.174L79.3572 90H77.2152ZM71.2572 88.812C71.9052 88.812 72.4872 88.686 73.0032 88.434C73.5312 88.182 74.0292 87.792 74.4972 87.264L70.8072 83.556C69.2712 84.144 68.5032 85.074 68.5032 86.346C68.5032 87.054 68.7552 87.642 69.2592 88.11C69.7752 88.578 70.4412 88.812 71.2572 88.812Z" fill="black" fill-opacity="0.5"/>
</svg>
