<svg width="52" height="49" viewBox="0 0 52 49" fill="none" xmlns="http://www.w3.org/2000/svg">
<path d="M8.4 11.35V27.5C8.4 28.8333 8.68333 29.7833 9.25 30.35C9.81667 30.8833 10.8 31.15 12.2 31.15H15.55V35H11.45C8.91667 35 7.01667 34.4167 5.75 33.25C4.48333 32.0833 3.85 30.1667 3.85 27.5V11.35H0.3V7.6H3.85V0.699998H8.4V7.6H15.55V11.35H8.4ZM28.6129 7.15C30.9796 7.15 33.0462 7.66666 34.8129 8.7C36.6129 9.73333 37.9462 11.0333 38.8129 12.6V7.6H43.4129V35.6C43.4129 38.1 42.8796 40.3167 41.8129 42.25C40.7462 44.2167 39.2129 45.75 37.2129 46.85C35.2462 47.95 32.9462 48.5 30.3129 48.5C26.7129 48.5 23.7129 47.65 21.3129 45.95C18.9129 44.25 17.4962 41.9333 17.0629 39H21.5629C22.0629 40.6667 23.0962 42 24.6629 43C26.2296 44.0333 28.1129 44.55 30.3129 44.55C32.8129 44.55 34.8462 43.7667 36.4129 42.2C38.0129 40.6333 38.8129 38.4333 38.8129 35.6V29.85C37.9129 31.45 36.5796 32.7833 34.8129 33.85C33.0462 34.9167 30.9796 35.45 28.6129 35.45C26.1796 35.45 23.9629 34.85 21.9629 33.65C19.9962 32.45 18.4462 30.7667 17.3129 28.6C16.1796 26.4333 15.6129 23.9667 15.6129 21.2C15.6129 18.4 16.1796 15.95 17.3129 13.85C18.4462 11.7167 19.9962 10.0667 21.9629 8.9C23.9629 7.73333 26.1796 7.15 28.6129 7.15ZM38.8129 21.25C38.8129 19.1833 38.3962 17.3833 37.5629 15.85C36.7296 14.3167 35.5962 13.15 34.1629 12.35C32.7629 11.5167 31.2129 11.1 29.5129 11.1C27.8129 11.1 26.2629 11.5 24.8629 12.3C23.4629 13.1 22.3462 14.2667 21.5129 15.8C20.6796 17.3333 20.2629 19.1333 20.2629 21.2C20.2629 23.3 20.6796 25.1333 21.5129 26.7C22.3462 28.2333 23.4629 29.4167 24.8629 30.25C26.2629 31.05 27.8129 31.45 29.5129 31.45C31.2129 31.45 32.7629 31.05 34.1629 30.25C35.5962 29.4167 36.7296 28.2333 37.5629 26.7C38.3962 25.1333 38.8129 23.3167 38.8129 21.25Z" fill="black"/>
<path d="M48.802 35.3C47.9353 35.3 47.202 35 46.602 34.4C46.002 33.8 45.702 33.0667 45.702 32.2C45.702 31.3333 46.002 30.6 46.602 30C47.202 29.4 47.9353 29.1 48.802 29.1C49.6353 29.1 50.3353 29.4 50.902 30C51.502 30.6 51.802 31.3333 51.802 32.2C51.802 33.0667 51.502 33.8 50.902 34.4C50.3353 35 49.6353 35.3 48.802 35.3Z" fill="#DE4848"/>
</svg>
